<svg width="1993" height="547" viewBox="0 0 1993 547" fill="none" xmlns="http://www.w3.org/2000/svg">
<path d="M1559.55 391.963L1419.48 532.031V391.963H1559.55Z" fill="black" stroke="black" stroke-width="2"/>
<path d="M1703.03 248.482L1562.96 388.549V248.482H1703.03Z" stroke="black" stroke-width="2"/>
<path d="M1706.45 249.896L1846.51 389.963H1706.45V249.896Z" stroke="black" stroke-width="2"/>
<circle cx="1490.22" cy="177.534" r="70.7409" stroke="black" stroke-width="2"/>
<circle cx="1292.94" cy="408.899" r="16.9352" fill="black" stroke="black" stroke-width="2"/>
<circle cx="1974.47" cy="231.34" r="16.9352" fill="black" stroke="black" stroke-width="2"/>
<circle cx="1656.12" cy="475.259" r="70.7409" stroke="black" stroke-width="2"/>
<rect x="1706.45" y="105" width="141.482" height="141.482" fill="black" stroke="black" stroke-width="2"/>
<path d="M284.549 287.963L144.482 428.031V287.963H284.549Z" fill="black" stroke="black" stroke-width="2"/>
<path d="M428.031 144.482L287.964 284.549V144.482H428.031Z" stroke="black" stroke-width="2"/>
<path d="M431.445 145.896L571.513 285.963H431.445V145.896Z" stroke="black" stroke-width="2"/>
<circle cx="215.223" cy="73.5343" r="70.7409" stroke="black" stroke-width="2"/>
<circle cx="17.9352" cy="304.899" r="16.9352" fill="black" stroke="black" stroke-width="2"/>
<circle cx="644.935" cy="85.9352" r="16.9352" fill="black" stroke="black" stroke-width="2"/>
<circle cx="381.123" cy="371.259" r="70.7409" stroke="black" stroke-width="2"/>
<rect x="431.445" y="1" width="141.482" height="141.482" fill="black" stroke="black" stroke-width="2"/>
</svg>
